<svg width="22" height="10" viewBox="0 0 22 10" fill="none" xmlns="http://www.w3.org/2000/svg">
<path d="M0.78 1.112H6.312V2.144H2.004V4.796H5.22V5.816H2.004V8.48H6.312V9.5H0.78V1.112ZM10.0562 9.68C9.48019 9.68 8.96019 9.556 8.49619 9.308C8.04019 9.052 7.68019 8.696 7.41619 8.24C7.16019 7.776 7.03219 7.24 7.03219 6.632C7.03219 6.032 7.16019 5.5 7.41619 5.036C7.68019 4.572 8.04019 4.212 8.49619 3.956C8.96019 3.692 9.48019 3.56 10.0562 3.56C11.0962 3.56 11.8842 3.876 12.4202 4.508V0.632H13.6322V9.5H12.4562V8.66C12.1362 9.012 11.7842 9.272 11.4002 9.44C11.0242 9.6 10.5762 9.68 10.0562 9.68ZM10.3322 8.72C10.8282 8.72 11.2602 8.592 11.6282 8.336C12.0042 8.072 12.2682 7.72 12.4202 7.28V5.984C12.2842 5.544 12.0242 5.192 11.6402 4.928C11.2642 4.664 10.8282 4.532 10.3322 4.532C9.94019 4.532 9.58419 4.62 9.26419 4.796C8.95219 4.972 8.70419 5.22 8.52019 5.54C8.34419 5.86 8.25619 6.224 8.25619 6.632C8.25619 7.04 8.34419 7.404 8.52019 7.724C8.70419 8.044 8.95219 8.292 9.26419 8.468C9.58419 8.636 9.94019 8.72 10.3322 8.72ZM15.9021 2.612C15.7021 2.612 15.5341 2.544 15.3981 2.408C15.2621 2.272 15.1941 2.104 15.1941 1.904C15.1941 1.704 15.2621 1.536 15.3981 1.4C15.5341 1.264 15.7021 1.196 15.9021 1.196C16.1101 1.196 16.2821 1.264 16.4181 1.4C16.5621 1.536 16.6341 1.704 16.6341 1.904C16.6341 2.104 16.5621 2.272 16.4181 2.408C16.2821 2.544 16.1101 2.612 15.9021 2.612ZM15.2901 3.74H16.5261V9.5H15.2901V3.74ZM20.4141 9.68C19.8301 9.68 19.3781 9.512 19.0581 9.176C18.7461 8.84 18.5901 8.364 18.5901 7.748V4.676H17.7141V3.74H18.5901V2.012H19.8141V3.74H21.2301V4.676H19.8141V7.664C19.8141 8.048 19.8861 8.32 20.0301 8.48C20.1821 8.64 20.4541 8.72 20.8461 8.72C21.0781 8.72 21.3101 8.668 21.5421 8.564V9.524C21.2381 9.628 20.8621 9.68 20.4141 9.68Z" fill="#3F53BE"/>
</svg>
