<svg width="38" height="10" viewBox="0 0 38 10" fill="none" xmlns="http://www.w3.org/2000/svg">
<path d="M0.78 0.611999H3.48C4.384 0.611999 5.168 0.779999 5.832 1.116C6.496 1.452 7.004 1.932 7.356 2.556C7.716 3.18 7.896 3.916 7.896 4.764C7.896 6.156 7.492 7.212 6.684 7.932C5.884 8.644 4.76 9 3.312 9H0.78V0.611999ZM3.3 7.98C4.42 7.98 5.26 7.704 5.82 7.152C6.38 6.6 6.66 5.804 6.66 4.764C6.66 3.804 6.384 3.044 5.832 2.484C5.288 1.924 4.508 1.644 3.492 1.644H2.004V7.98H3.3ZM12.3855 9.18C11.3215 9.18 10.4855 8.916 9.8775 8.388C9.2775 7.852 8.9775 7.1 8.9775 6.132C8.9775 5.188 9.2455 4.44 9.7815 3.888C10.3255 3.336 11.0975 3.06 12.0975 3.06C12.7615 3.06 13.3255 3.188 13.7895 3.444C14.2535 3.692 14.6015 4.04 14.8335 4.488C15.0735 4.928 15.1935 5.432 15.1935 6V6.6H10.1295C10.1695 7.144 10.3975 7.552 10.8135 7.824C11.2375 8.088 11.8095 8.22 12.5295 8.22C12.8975 8.22 13.2695 8.188 13.6455 8.124C14.0215 8.052 14.3535 7.96 14.6415 7.848V8.82C14.3855 8.924 14.0455 9.008 13.6215 9.072C13.2055 9.144 12.7935 9.18 12.3855 9.18ZM14.0535 5.748C14.0375 5.204 13.8575 4.784 13.5135 4.488C13.1775 4.184 12.6975 4.032 12.0735 4.032C11.4655 4.032 10.9935 4.188 10.6575 4.5C10.3215 4.812 10.1455 5.228 10.1295 5.748H14.0535ZM16.5183 0.132H17.7303V9H16.5183V0.132ZM22.4636 9.18C21.3996 9.18 20.5636 8.916 19.9556 8.388C19.3556 7.852 19.0556 7.1 19.0556 6.132C19.0556 5.188 19.3236 4.44 19.8596 3.888C20.4036 3.336 21.1756 3.06 22.1756 3.06C22.8396 3.06 23.4036 3.188 23.8676 3.444C24.3316 3.692 24.6796 4.04 24.9116 4.488C25.1516 4.928 25.2716 5.432 25.2716 6V6.6H20.2076C20.2476 7.144 20.4756 7.552 20.8916 7.824C21.3156 8.088 21.8876 8.22 22.6076 8.22C22.9756 8.22 23.3476 8.188 23.7236 8.124C24.0996 8.052 24.4316 7.96 24.7196 7.848V8.82C24.4636 8.924 24.1236 9.008 23.6996 9.072C23.2836 9.144 22.8716 9.18 22.4636 9.18ZM24.1316 5.748C24.1156 5.204 23.9356 4.784 23.5916 4.488C23.2556 4.184 22.7756 4.032 22.1516 4.032C21.5436 4.032 21.0716 4.188 20.7356 4.5C20.3996 4.812 20.2236 5.228 20.2076 5.748H24.1316ZM28.8164 9.18C28.2324 9.18 27.7804 9.012 27.4604 8.676C27.1484 8.34 26.9924 7.864 26.9924 7.248V4.176H26.1164V3.24H26.9924V1.512H28.2164V3.24H29.6324V4.176H28.2164V7.164C28.2164 7.548 28.2884 7.82 28.4324 7.98C28.5844 8.14 28.8564 8.22 29.2484 8.22C29.4804 8.22 29.7124 8.168 29.9444 8.064V9.024C29.6404 9.128 29.2644 9.18 28.8164 9.18ZM34.2527 9.18C33.1887 9.18 32.3527 8.916 31.7447 8.388C31.1447 7.852 30.8447 7.1 30.8447 6.132C30.8447 5.188 31.1127 4.44 31.6487 3.888C32.1927 3.336 32.9647 3.06 33.9647 3.06C34.6287 3.06 35.1927 3.188 35.6567 3.444C36.1207 3.692 36.4687 4.04 36.7007 4.488C36.9407 4.928 37.0607 5.432 37.0607 6V6.6H31.9967C32.0367 7.144 32.2647 7.552 32.6807 7.824C33.1047 8.088 33.6767 8.22 34.3967 8.22C34.7647 8.22 35.1367 8.188 35.5127 8.124C35.8887 8.052 36.2207 7.96 36.5087 7.848V8.82C36.2527 8.924 35.9127 9.008 35.4887 9.072C35.0727 9.144 34.6607 9.18 34.2527 9.18ZM35.9207 5.748C35.9047 5.204 35.7247 4.784 35.3807 4.488C35.0447 4.184 34.5647 4.032 33.9407 4.032C33.3327 4.032 32.8607 4.188 32.5247 4.5C32.1887 4.812 32.0127 5.228 31.9967 5.748H35.9207Z" fill="#EC4466"/>
</svg>
