<svg width="10" height="10" viewBox="0 0 10 10" fill="none" xmlns="http://www.w3.org/2000/svg">
<path d="M9.81277 1.08936C10.062 0.840153 10.062 0.436111 9.81277 0.186905C9.56357 -0.0623009 9.15954 -0.062302 8.91034 0.186904L4.99999 4.09738L1.08966 0.186916C0.840461 -0.0622895 0.436432 -0.0622893 0.187234 0.186916C-0.0619637 0.436122 -0.0619649 0.840164 0.187233 1.08937L4.09757 4.99983L0.186898 8.91063C-0.0622995 9.15984 -0.0622993 9.56388 0.186898 9.81308C0.436096 10.0623 0.840124 10.0623 1.08932 9.81309L4.99999 5.90229L8.91068 9.8131C9.15987 10.0623 9.5639 10.0623 9.8131 9.8131C10.0623 9.56389 10.0623 9.15985 9.8131 8.91064L5.90242 4.99983L9.81277 1.08936Z" fill="#EC4466"/>
</svg>
