<svg width="32" height="32" viewBox="0 0 32 32" fill="none" xmlns="http://www.w3.org/2000/svg">
<path d="M0 0H24C28.4183 0 32 3.58172 32 8V32H8C3.58172 32 0 28.4183 0 24V0Z" fill="#2B2B2B"/>
<path d="M22.7377 10.5251C23.0866 10.1762 23.0866 9.61054 22.7377 9.26165C22.3888 8.91276 21.8232 8.91276 21.4743 9.26165L15.9999 14.7363L10.5255 9.26167C10.1766 8.91278 9.611 8.91278 9.26212 9.26167C8.91325 9.61056 8.91325 10.1762 9.26212 10.5251L14.7365 15.9998L9.26165 21.4749C8.91278 21.8238 8.91278 22.3894 9.26165 22.7383C9.61053 23.0872 10.1762 23.0872 10.525 22.7383L15.9999 17.2632L21.4748 22.7383C21.8237 23.0872 22.3893 23.0872 22.7382 22.7383C23.0871 22.3894 23.0871 21.8238 22.7382 21.4749L17.2633 15.9998L22.7377 10.5251Z" fill="white"/>
</svg>
