<svg width="53" height="16" viewBox="0 0 53 16" fill="none" xmlns="http://www.w3.org/2000/svg">
<path d="M0.0400001 0.315999H1.672V10.14H7.336V11.5H0.0400001V0.315999ZM12.1818 11.74C11.3178 11.74 10.5551 11.58 9.89375 11.26C9.24308 10.9293 8.73108 10.46 8.35775 9.852C7.99508 9.23333 7.81375 8.508 7.81375 7.676C7.81375 6.85467 7.99508 6.13467 8.35775 5.516C8.72042 4.89733 9.23242 4.42267 9.89375 4.092C10.5551 3.75067 11.3178 3.58 12.1818 3.58C13.0458 3.58 13.8084 3.75067 14.4698 4.092C15.1311 4.42267 15.6431 4.89733 16.0058 5.516C16.3791 6.13467 16.5658 6.85467 16.5658 7.676C16.5658 8.508 16.3791 9.23333 16.0058 9.852C15.6431 10.46 15.1311 10.9293 14.4698 11.26C13.8084 11.58 13.0458 11.74 12.1818 11.74ZM12.1818 10.46C13.0138 10.46 13.6751 10.204 14.1658 9.692C14.6564 9.18 14.9018 8.508 14.9018 7.676C14.9018 6.812 14.6564 6.12933 14.1658 5.628C13.6751 5.12667 13.0138 4.876 12.1818 4.876C11.3498 4.876 10.6884 5.12667 10.1978 5.628C9.70708 6.12933 9.46175 6.812 9.46175 7.676C9.46175 8.508 9.70708 9.18 10.1978 9.692C10.6884 10.204 11.3498 10.46 12.1818 10.46ZM22.3373 15.18C21.8146 15.18 21.3026 15.1373 20.8013 15.052C20.3106 14.9667 19.8946 14.844 19.5533 14.684V13.356C20.3533 13.7187 21.2813 13.9 22.3373 13.9C23.3293 13.9 24.0493 13.6813 24.4973 13.244C24.9559 12.8173 25.1853 12.1667 25.1853 11.292V10.476C24.4813 11.3187 23.4466 11.74 22.0813 11.74C21.3026 11.74 20.6039 11.5693 19.9853 11.228C19.3666 10.8867 18.8813 10.4067 18.5293 9.788C18.1773 9.16933 18.0013 8.46 18.0013 7.66C18.0013 6.84933 18.1719 6.14 18.5133 5.532C18.8653 4.91333 19.3453 4.43333 19.9533 4.092C20.5719 3.75067 21.2653 3.58 22.0333 3.58C22.7479 3.58 23.3506 3.68667 23.8413 3.9C24.3426 4.10267 24.8066 4.444 25.2333 4.924V3.82H26.8013V11.116C26.8013 12.428 26.4333 13.4307 25.6973 14.124C24.9719 14.828 23.8519 15.18 22.3373 15.18ZM22.4013 10.46C23.0626 10.46 23.6439 10.284 24.1453 9.932C24.6573 9.58 25.0039 9.11067 25.1853 8.524V6.796C24.9826 6.19867 24.6306 5.72933 24.1293 5.388C23.6386 5.04667 23.0626 4.876 22.4013 4.876C21.8786 4.876 21.4039 4.99333 20.9773 5.228C20.5613 5.452 20.2306 5.77733 19.9853 6.204C19.7506 6.63067 19.6332 7.116 19.6332 7.66C19.6332 8.21467 19.7506 8.70533 19.9853 9.132C20.2306 9.548 20.5613 9.87333 20.9773 10.108C21.4039 10.3427 21.8786 10.46 22.4013 10.46ZM32.5255 11.74C31.6615 11.74 30.8988 11.58 30.2375 11.26C29.5868 10.9293 29.0748 10.46 28.7015 9.852C28.3388 9.23333 28.1575 8.508 28.1575 7.676C28.1575 6.85467 28.3388 6.13467 28.7015 5.516C29.0642 4.89733 29.5762 4.42267 30.2375 4.092C30.8988 3.75067 31.6615 3.58 32.5255 3.58C33.3895 3.58 34.1522 3.75067 34.8135 4.092C35.4748 4.42267 35.9868 4.89733 36.3495 5.516C36.7228 6.13467 36.9095 6.85467 36.9095 7.676C36.9095 8.508 36.7228 9.23333 36.3495 9.852C35.9868 10.46 35.4748 10.9293 34.8135 11.26C34.1522 11.58 33.3895 11.74 32.5255 11.74ZM32.5255 10.46C33.3575 10.46 34.0188 10.204 34.5095 9.692C35.0002 9.18 35.2455 8.508 35.2455 7.676C35.2455 6.812 35.0002 6.12933 34.5095 5.628C34.0188 5.12667 33.3575 4.876 32.5255 4.876C31.6935 4.876 31.0322 5.12667 30.5415 5.628C30.0508 6.12933 29.8055 6.812 29.8055 7.676C29.8055 8.508 30.0508 9.18 30.5415 9.692C31.0322 10.204 31.6935 10.46 32.5255 10.46ZM41.721 11.74C40.6863 11.74 39.9023 11.4627 39.369 10.908C38.8463 10.3533 38.585 9.612 38.585 8.684V3.82H40.201V8.62C40.201 9.84667 40.8143 10.46 42.041 10.46C43.1183 10.46 43.961 9.97467 44.569 9.004V3.82H46.185V11.5H44.617V10.412C44.2543 10.8707 43.8223 11.2067 43.321 11.42C42.8303 11.6333 42.297 11.74 41.721 11.74ZM51.2188 11.74C50.4401 11.74 49.8374 11.516 49.4108 11.068C48.9948 10.62 48.7868 9.98533 48.7868 9.164V5.068H47.6188V3.82H48.7868V1.516H50.4188V3.82H52.3068V5.068H50.4188V9.052C50.4188 9.564 50.5148 9.92667 50.7068 10.14C50.9094 10.3533 51.2721 10.46 51.7948 10.46C52.1041 10.46 52.4134 10.3907 52.7228 10.252V11.532C52.3174 11.6707 51.8161 11.74 51.2188 11.74Z" fill="#EC4466"/>
</svg>
